<mxfile host="app.diagrams.net" agent="Mozilla/5.0 (Linux; Android 10; K) AppleWebKit/537.36 (KHTML, like Gecko) Chrome/137.0.0.0 Mobile Safari/537.36" version="27.1.6">
  <diagram name="Page-1" id="AwduQACXlXJy-gVNE2mW">
    <mxGraphModel dx="698" dy="1062" grid="1" gridSize="10" guides="1" tooltips="1" connect="1" arrows="1" fold="1" page="1" pageScale="1" pageWidth="850" pageHeight="1100" math="0" shadow="0">
      <root>
        <mxCell id="0" />
        <mxCell id="1" parent="0" />
        <mxCell id="IzRwOi8sSjLE_Hw5syPS-6" value="" style="edgeStyle=none;curved=1;rounded=0;orthogonalLoop=1;jettySize=auto;html=1;fontSize=12;startSize=8;endSize=8;" parent="1" source="IzRwOi8sSjLE_Hw5syPS-1" target="IzRwOi8sSjLE_Hw5syPS-5" edge="1">
          <mxGeometry relative="1" as="geometry" />
        </mxCell>
        <mxCell id="IzRwOi8sSjLE_Hw5syPS-1" value="Secret Word: Bell" style="whiteSpace=wrap;html=1;" parent="1" vertex="1">
          <mxGeometry x="20" y="20" width="120" height="60" as="geometry" />
        </mxCell>
        <mxCell id="IzRwOi8sSjLE_Hw5syPS-4" value="" style="edgeStyle=none;curved=1;rounded=0;orthogonalLoop=1;jettySize=auto;html=1;fontSize=12;startSize=8;endSize=8;" parent="1" source="IzRwOi8sSjLE_Hw5syPS-2" target="IzRwOi8sSjLE_Hw5syPS-3" edge="1">
          <mxGeometry relative="1" as="geometry" />
        </mxCell>
        <mxCell id="IzRwOi8sSjLE_Hw5syPS-2" value="Key: Lick" style="whiteSpace=wrap;html=1;" parent="1" vertex="1">
          <mxGeometry x="20" y="100" width="120" height="60" as="geometry" />
        </mxCell>
        <mxCell id="IzRwOi8sSjLE_Hw5syPS-11" value="" style="edgeStyle=none;curved=1;rounded=0;orthogonalLoop=1;jettySize=auto;html=1;fontSize=12;startSize=8;endSize=8;" parent="1" source="IzRwOi8sSjLE_Hw5syPS-3" target="IzRwOi8sSjLE_Hw5syPS-10" edge="1">
          <mxGeometry relative="1" as="geometry" />
        </mxCell>
        <mxCell id="IzRwOi8sSjLE_Hw5syPS-3" value="76 105 99 107&amp;nbsp;" style="whiteSpace=wrap;html=1;" parent="1" vertex="1">
          <mxGeometry x="180" y="100" width="120" height="60" as="geometry" />
        </mxCell>
        <mxCell id="IzRwOi8sSjLE_Hw5syPS-8" value="" style="edgeStyle=none;curved=1;rounded=0;orthogonalLoop=1;jettySize=auto;html=1;fontSize=12;startSize=8;endSize=8;" parent="1" source="IzRwOi8sSjLE_Hw5syPS-5" target="IzRwOi8sSjLE_Hw5syPS-7" edge="1">
          <mxGeometry relative="1" as="geometry" />
        </mxCell>
        <mxCell id="IzRwOi8sSjLE_Hw5syPS-5" value="66 101 108 108" style="whiteSpace=wrap;html=1;" parent="1" vertex="1">
          <mxGeometry x="180" y="20" width="120" height="60" as="geometry" />
        </mxCell>
        <mxCell id="IzRwOi8sSjLE_Hw5syPS-7" value="01000010-01100101-01101100-01101100" style="whiteSpace=wrap;html=1;" parent="1" vertex="1">
          <mxGeometry x="460" y="20" width="240" height="60" as="geometry" />
        </mxCell>
        <mxCell id="DWh6Co6lFLodaew5b66H-2" value="" style="edgeStyle=none;curved=1;rounded=0;orthogonalLoop=1;jettySize=auto;html=1;fontSize=12;startSize=8;endSize=8;" edge="1" parent="1" source="IzRwOi8sSjLE_Hw5syPS-10" target="DWh6Co6lFLodaew5b66H-1">
          <mxGeometry relative="1" as="geometry" />
        </mxCell>
        <mxCell id="IzRwOi8sSjLE_Hw5syPS-10" value="01001100-01101001-01100011-01101011" style="whiteSpace=wrap;html=1;" parent="1" vertex="1">
          <mxGeometry x="460" y="100" width="240" height="60" as="geometry" />
        </mxCell>
        <mxCell id="DWh6Co6lFLodaew5b66H-5" value="" style="edgeStyle=none;curved=1;rounded=0;orthogonalLoop=1;jettySize=auto;html=1;fontSize=12;startSize=8;endSize=8;" edge="1" parent="1" source="DWh6Co6lFLodaew5b66H-1" target="DWh6Co6lFLodaew5b66H-4">
          <mxGeometry relative="1" as="geometry" />
        </mxCell>
        <mxCell id="DWh6Co6lFLodaew5b66H-1" value="00001110-00001100-00001111-00000111" style="whiteSpace=wrap;html=1;" vertex="1" parent="1">
          <mxGeometry x="460" y="180" width="240" height="60" as="geometry" />
        </mxCell>
        <mxCell id="DWh6Co6lFLodaew5b66H-3" value="" style="edgeStyle=none;orthogonalLoop=1;jettySize=auto;html=1;rounded=0;fontSize=12;startSize=8;endSize=8;curved=1;exitX=0.5;exitY=1;exitDx=0;exitDy=0;" edge="1" parent="1" source="IzRwOi8sSjLE_Hw5syPS-7" target="IzRwOi8sSjLE_Hw5syPS-10">
          <mxGeometry width="120" relative="1" as="geometry">
            <mxPoint x="460" y="100" as="sourcePoint" />
            <mxPoint x="580" y="100" as="targetPoint" />
            <Array as="points" />
          </mxGeometry>
        </mxCell>
        <mxCell id="DWh6Co6lFLodaew5b66H-4" value="Encrypted Message (Hx format): 0E 0C 0F 07" style="whiteSpace=wrap;html=1;" vertex="1" parent="1">
          <mxGeometry x="440" y="260" width="280" height="60" as="geometry" />
        </mxCell>
        <mxCell id="DWh6Co6lFLodaew5b66H-18" value="" style="edgeStyle=none;curved=1;rounded=0;orthogonalLoop=1;jettySize=auto;html=1;fontSize=12;startSize=8;endSize=8;" edge="1" parent="1" source="DWh6Co6lFLodaew5b66H-12">
          <mxGeometry relative="1" as="geometry">
            <mxPoint x="250" y="340" as="targetPoint" />
          </mxGeometry>
        </mxCell>
        <mxCell id="DWh6Co6lFLodaew5b66H-12" value="00001110-00001100-00001111-00000111" style="whiteSpace=wrap;html=1;" vertex="1" parent="1">
          <mxGeometry x="130" y="260" width="240" height="60" as="geometry" />
        </mxCell>
        <mxCell id="DWh6Co6lFLodaew5b66H-14" value="" style="edgeStyle=none;orthogonalLoop=1;jettySize=auto;html=1;rounded=0;fontSize=12;startSize=8;endSize=8;curved=1;entryX=1;entryY=0.5;entryDx=0;entryDy=0;entryPerimeter=0;exitX=0;exitY=0.5;exitDx=0;exitDy=0;" edge="1" parent="1" source="DWh6Co6lFLodaew5b66H-4" target="DWh6Co6lFLodaew5b66H-12">
          <mxGeometry width="120" relative="1" as="geometry">
            <mxPoint x="450" y="300" as="sourcePoint" />
            <mxPoint x="380" y="300" as="targetPoint" />
            <Array as="points" />
          </mxGeometry>
        </mxCell>
        <mxCell id="DWh6Co6lFLodaew5b66H-22" value="" style="edgeStyle=none;curved=1;rounded=0;orthogonalLoop=1;jettySize=auto;html=1;fontSize=12;startSize=8;endSize=8;" edge="1" parent="1" source="DWh6Co6lFLodaew5b66H-20">
          <mxGeometry relative="1" as="geometry">
            <mxPoint x="250" y="420" as="targetPoint" />
          </mxGeometry>
        </mxCell>
        <mxCell id="DWh6Co6lFLodaew5b66H-20" value="01001100-01101001-01100011-01101011" style="whiteSpace=wrap;html=1;" vertex="1" parent="1">
          <mxGeometry x="130" y="340" width="240" height="60" as="geometry" />
        </mxCell>
        <mxCell id="DWh6Co6lFLodaew5b66H-30" value="" style="edgeStyle=none;curved=1;rounded=0;orthogonalLoop=1;jettySize=auto;html=1;fontSize=12;startSize=8;endSize=8;" edge="1" parent="1" source="DWh6Co6lFLodaew5b66H-23">
          <mxGeometry relative="1" as="geometry">
            <mxPoint x="410" y="450" as="targetPoint" />
          </mxGeometry>
        </mxCell>
        <mxCell id="DWh6Co6lFLodaew5b66H-23" value="01000010-01100101-01101100-01101100" style="whiteSpace=wrap;html=1;" vertex="1" parent="1">
          <mxGeometry x="130" y="420" width="240" height="60" as="geometry" />
        </mxCell>
        <mxCell id="DWh6Co6lFLodaew5b66H-24" value="Key: Lick" style="whiteSpace=wrap;html=1;" vertex="1" parent="1">
          <mxGeometry x="520" y="345" width="120" height="50" as="geometry" />
        </mxCell>
        <mxCell id="DWh6Co6lFLodaew5b66H-25" value="" style="edgeStyle=none;orthogonalLoop=1;jettySize=auto;html=1;rounded=0;fontSize=12;startSize=8;endSize=8;curved=1;" edge="1" parent="1" target="DWh6Co6lFLodaew5b66H-20">
          <mxGeometry width="120" relative="1" as="geometry">
            <mxPoint x="520" y="370" as="sourcePoint" />
            <mxPoint x="390" y="370" as="targetPoint" />
            <Array as="points" />
          </mxGeometry>
        </mxCell>
        <mxCell id="DWh6Co6lFLodaew5b66H-28" value="Secret Word: Bell" style="whiteSpace=wrap;html=1;" vertex="1" parent="1">
          <mxGeometry x="580" y="420" width="120" height="60" as="geometry" />
        </mxCell>
        <mxCell id="DWh6Co6lFLodaew5b66H-31" value="66 101 108 108" style="whiteSpace=wrap;html=1;" vertex="1" parent="1">
          <mxGeometry x="410" y="420" width="120" height="60" as="geometry" />
        </mxCell>
        <mxCell id="DWh6Co6lFLodaew5b66H-33" value="" style="edgeStyle=none;orthogonalLoop=1;jettySize=auto;html=1;rounded=0;fontSize=12;startSize=8;endSize=8;curved=1;exitX=1;exitY=0.5;exitDx=0;exitDy=0;" edge="1" parent="1" source="DWh6Co6lFLodaew5b66H-31">
          <mxGeometry width="120" relative="1" as="geometry">
            <mxPoint x="540" y="450" as="sourcePoint" />
            <mxPoint x="580" y="450" as="targetPoint" />
            <Array as="points" />
          </mxGeometry>
        </mxCell>
      </root>
    </mxGraphModel>
  </diagram>
</mxfile>
